<svg xmlns="http://www.w3.org/2000/svg" viewBox="0 0 512 512" role="img" aria-labelledby="title desc">
  <title id="title">Report Sender</title>
  <desc id="desc">A modern rounded app icon showing a report card and outgoing mail.</desc>
  <defs>
    <linearGradient id="bg" x1="72" y1="54" x2="440" y2="458" gradientUnits="userSpaceOnUse">
      <stop offset="0" stop-color="#f8fafc"/>
      <stop offset="0.58" stop-color="#eef2f7"/>
      <stop offset="1" stop-color="#dbe4ef"/>
    </linearGradient>
    <linearGradient id="accent" x1="135" y1="125" x2="410" y2="390" gradientUnits="userSpaceOnUse">
      <stop offset="0" stop-color="#f5a14a"/>
      <stop offset="1" stop-color="#df6f2b"/>
    </linearGradient>
    <filter id="shadow" x="72" y="86" width="360" height="354" color-interpolation-filters="sRGB" filterUnits="userSpaceOnUse">
      <feDropShadow dx="0" dy="24" stdDeviation="28" flood-color="#111827" flood-opacity="0.16"/>
    </filter>
  </defs>
  <rect width="512" height="512" rx="116" fill="#f6f7f9"/>
  <rect x="32" y="32" width="448" height="448" rx="96" fill="url(#bg)"/>
  <g filter="url(#shadow)">
    <rect x="122" y="104" width="268" height="314" rx="42" fill="#ffffff"/>
    <path d="M178 171h112M178 225h156M178 279h112" fill="none" stroke="#253041" stroke-linecap="round" stroke-width="22"/>
    <rect x="178" y="326" width="78" height="46" rx="16" fill="#e7edf4"/>
    <path d="M310 314l104-47-49 103-18-47-37-9Z" fill="url(#accent)"/>
    <path d="M310 314l104-47-67 56" fill="none" stroke="#9f4a20" stroke-linecap="round" stroke-linejoin="round" stroke-opacity="0.34" stroke-width="12"/>
  </g>
  <path d="M107 108c52-44 139-64 236-34" fill="none" stroke="#ffffff" stroke-linecap="round" stroke-opacity="0.65" stroke-width="14"/>
</svg>
